HIERARCHY
ROOT Hips
{
    OFFSET 0.0 0.0 0.0
    CHANNELS 6 Xposition Yposition Zposition Zrotation Xrotation Yrotation
    JOINT LeftHipJoint
    {
        OFFSET 0.1 0.0 0.0
        CHANNELS 3 Zrotation Xrotation Yrotation
        JOINT LeftUpLeg
        {
            OFFSET 128.08638222955062 0.0 0.0
            CHANNELS 3 Zrotation Xrotation Yrotation
            JOINT LeftLeg
            {
                OFFSET 0.0 0.0 -438.78243444624457
                CHANNELS 3 Zrotation Xrotation Yrotation
                JOINT LeftFoot
                {
                    OFFSET 0.0 0.0 -395.5445383478951
                    CHANNELS 3 Zrotation Xrotation Yrotation
                    End Site
                    {
                        OFFSET 0.0 -0.1 0.0
                    }
                }
            }
        }
    }
    JOINT LowerBack
    {
        OFFSET 0.0 0.0 0.1
        CHANNELS 3 Zrotation Xrotation Yrotation
        JOINT Spine
        {
            OFFSET 0.0 0.0 220.9250198015801
            CHANNELS 3 Zrotation Xrotation Yrotation
            JOINT Spine1
            {
                OFFSET 0.0 0.0 251.41194265066318
                CHANNELS 3 Zrotation Xrotation Yrotation
                JOINT LeftShoulder
                {
                    OFFSET 0.1 0.0 0.0
                    CHANNELS 3 Zrotation Xrotation Yrotation
                    JOINT LeftArm
                    {
                        OFFSET 136.20377782613238 0.0 0.0
                        CHANNELS 3 Zrotation Xrotation Yrotation
                        JOINT LeftForeArm
                        {
                            OFFSET 272.7740940138933 0.0 0.0
                            CHANNELS 3 Zrotation Xrotation Yrotation
                            JOINT LeftHand
                            {
                                OFFSET 255.4655674093192 0.0 0.0
                                CHANNELS 3 Zrotation Xrotation Yrotation
                                End Site
                                {
                                    OFFSET 0.1 0.0 0.0
                                }
                            }
                        }
                    }
                }
                JOINT Neck
                {
                    OFFSET 0.0 0.0 0.1
                    CHANNELS 3 Zrotation Xrotation Yrotation
                    JOINT Neck1
                    {
                        OFFSET 0.0 0.0 99.09518172236393
                        CHANNELS 3 Zrotation Xrotation Yrotation
                        End Site
                        {
                            OFFSET 0.0 0.0 113.60469686996865
                        }
                    }
                }
                JOINT RightShoulder
                {
                    OFFSET -0.1 0.0 0.0
                    CHANNELS 3 Zrotation Xrotation Yrotation
                    JOINT RightArm
                    {
                        OFFSET -136.20377782613238 0.0 0.0
                        CHANNELS 3 Zrotation Xrotation Yrotation
                        JOINT RightForeArm
                        {
                            OFFSET -272.7740940138933 0.0 0.0
                            CHANNELS 3 Zrotation Xrotation Yrotation
                            JOINT RightHand
                            {
                                OFFSET -255.4655674093192 0.0 0.0
                                CHANNELS 3 Zrotation Xrotation Yrotation
                                End Site
                                {
                                    OFFSET -0.1 0.0 0.0
                                }
                            }
                        }
                    }
                }
            }
        }
    }
    JOINT RightHipJoint
    {
        OFFSET -0.1 0.0 0.0
        CHANNELS 3 Zrotation Xrotation Yrotation
        JOINT RightUpLeg
        {
            OFFSET -128.08638222955062 0.0 0.0
            CHANNELS 3 Zrotation Xrotation Yrotation
            JOINT RightLeg
            {
                OFFSET 0.0 0.0 -438.78243444624457
                CHANNELS 3 Zrotation Xrotation Yrotation
                JOINT RightFoot
                {
                    OFFSET 0.0 0.0 -395.5445383478951
                    CHANNELS 3 Zrotation Xrotation Yrotation
                    End Site
                    {
                        OFFSET 0.0 -0.1 0.0
                    }
                }
            }
        }
    }
}
MOTION
Frames: 6
Frame Time: 0.03333333333333333
0.0 0.0 827.066301716812 25.88422784278976 5.432196502877936 3.532053939991473 0.0 0.0 -1.9878466759146977e-16 -0.791842470786539 -16.680603803308795 2.069134980449865 2.07412190740978 23.177076224886736 -1.236450354982923 0.0 0.0 -7.951386703658792e-16 0.0 0.0 -1.9878466759146977e-16 0.39111571180191435 8.396811672658378 2.9258161341558324 0.6030147786476958 3.180510643976879e-15 -1.673694503992023e-17 0.0 0.0 3.975693351829396e-16 -24.40938122676704 11.76415831426057 67.38641751886944 -121.04964376912882 9.028814756837543e-15 9.510587861797188e-15 0.0 0.0 0.0 0.0 0.0 3.975693351829396e-16 -7.68854275454645 -12.055602864259441 -6.618719762662004 0.0 0.0 3.975693351829396e-16 19.400947694709103 6.545273033622912 -71.83433798027794 117.8129407595734 0.0 0.0 0.0 0.0 -3.1805546814635168e-15 0.0 0.0 -1.9878466759146977e-16 -0.6989610827567626 -14.735109872781958 -1.8388074541043404 0.45823673650968744 26.97525791386765 0.7754070655506482 0.0 0.0 0.0
0.0 0.0 827.066301716812 25.761254305539683 5.4887062834189875 3.5843870825810558 0.0 0.0 0.0 -0.8204029625579348 -16.760162227084464 2.0274469424930923 2.0894028652834917 23.138420962329167 -1.2310042321905135 -3.4483642953516864e-33 -1.987846675914698e-16 -1.987846675914698e-15 0.0 0.0 0.0 0.40658452335501216 8.467241981682683 2.949154431398078 0.557201076945988 7.970624422651617e-16 3.936982912324089e-16 0.0 0.0 -7.951386703658792e-16 -24.301639947475785 11.461516006490688 67.17924726275572 -120.99253067617497 -1.5589224045097153e-14 1.5123986428576008e-15 0.0 0.0 -6.3611093629270335e-15 0.0 0.0 -7.951386703658792e-16 -7.515270996459801 -12.045266610503726 -6.60706258674454 0.0 0.0 -7.951386703658792e-16 19.46276766882474 6.514294175141994 -71.82868556682696 117.80926835001173 5.447074305935063e-15 3.285284437113477e-15 0.0 0.0 -3.1805546814635168e-15 0.0 0.0 0.0 -0.7301833685680063 -14.926393985745559 -1.9034913105304958 0.47230429491430354 27.117796758475063 0.8347085954386855 0.0 0.0 0.0
0.0 0.0 827.066301716812 25.74306074258089 5.57898555767728 3.6208146257042 0.0 0.0 3.975693351829396e-16 -0.8389652096362041 -16.84354731691989 1.982584151249248 2.0645543710870897 22.870420918293867 -1.1917038329558687 0.0 0.0 -3.975693351829396e-16 0.0 0.0 3.975693351829396e-16 0.4176767177396618 8.550808338204005 3.0104743213285077 0.4521603900377644 2.7766887115439183e-15 -1.6012461576040922e-15 0.0 0.0 -3.975693351829396e-16 -24.23533649436325 11.111184633349872 66.9172199295025 -121.03435529075954 1.0052408395483709e-14 1.6239914681575411e-15 0.0 0.0 6.3611093629270335e-15 0.0 0.0 -3.975693351829396e-16 -7.482897729225619 -12.043351367281714 -6.6044346585414875 0.0 0.0 -3.975693351829396e-16 19.410956378945304 6.451264220492282 -71.89624213519139 117.90273827916222 -3.2808402805389796e-15 5.44975223113041e-15 0.0 0.0 0.0 0.0 0.0 3.975693351829396e-16 -0.750316367123136 -15.076007002005534 -1.9712505760421897 0.46305014636875197 27.10457362931247 0.9680424393962442 3.1805546814635168e-15 2.2069531490250793e-32 7.951386703658792e-16
0.0 0.0 827.066301716812 25.65157340277413 5.507980960195774 3.663483863993372 0.0 0.0 0.0 -0.8497762789041226 -16.756810208075688 1.9608543796049158 2.0592758170298664 22.691059680520404 -1.2255000751272944 0.0 0.0 -3.975693351829396e-16 0.0 0.0 0.0 0.4323509215765708 8.689027535724025 3.05245481641826 0.38135733659201426 -8.043959433824181e-16 -2.78032374175986e-15 0.0 0.0 0.0 -24.095588001013812 10.85100139498565 66.71164813635829 -120.98505791964166 -8.304028916560404e-15 4.699623015619873e-15 0.0 0.0 0.0 0.0 0.0 0.0 -7.296459839844439 -12.005398611708612 -6.6348486564203215 0.0 0.0 0.0 19.363655996786463 6.527487485392827 -71.91094953730037 117.94167979288645 8.729854948785128e-15 -2.1718787322057773e-15 0.0 0.0 0.0 0.0 0.0 0.0 -0.7645827768317645 -15.085000628981046 -2.0437880991680886 0.45233671305634604 27.068713410458322 1.11673328226656 0.0 0.0 0.0
0.0 0.0 827.066301716812 25.518204541434468 5.514251991058458 3.725266442263724 -2.758691436281349e-33 -7.951386703658792e-16 -3.975693351829396e-16 -0.875476299802036 -16.683271729175992 1.8776711496144387 2.045548987892403 22.478191932145144 -1.188688666259757 0.0 0.0 0.0 -2.758691436281349e-33 -7.951386703658792e-16 -3.975693351829396e-16 0.4485626741487645 8.710290925225111 3.043849412518221 0.3161493654501267 -1.5979493228363196e-15 -2.7785873064750454e-15 3.1805546814635164e-15 0.0 0.0 -24.001927823631 10.648184356252866 66.52305856993128 -121.09431057896018 1.4922411355482612e-14 1.3489209117251583e-14 0.0 0.0 0.0 3.1805546814635164e-15 0.0 0.0 -7.083917059429071 -11.956783588588086 -6.60619563144392 3.1805546814635164e-15 0.0 0.0 19.214019799823625 6.636373449261719 -71.94128425000481 118.01274787531379 -3.275606926518652e-15 5.4528993746502404e-15 0.0 0.0 -3.1805546814635168e-15 -2.758691436281349e-33 -7.951386703658792e-16 -3.975693351829396e-16 -0.8002626147763708 -15.250643558415561 -2.1041428474790558 0.4769234454359547 27.16841667659882 1.2379142835468053 0.0 0.0 -7.951386703658792e-16
0.0 0.0 827.066301716812 25.49893710211422 5.529033535261358 3.809683776758964 -1.7241821476758432e-33 9.93923337957349e-16 1.987846675914698e-16 -0.9126524818030451 -16.650008386175905 1.8022929464199975 2.052726023859571 22.30410203035324 -1.2299071280740992 0.0 0.0 0.0 -1.7241821476758432e-33 9.93923337957349e-16 1.987846675914698e-16 0.4711039550241035 8.757175670643985 3.016199722232003 0.2778236648273665 3.1815092272624847e-15 3.8985701853495507e-16 0.0 0.0 -1.987846675914698e-15 -23.97466475715884 10.466354434395303 66.34670997198786 -121.26001435595882 -1.3858802500198094e-15 7.79947404027928e-16 0.0 0.0 0.0 0.0 0.0 -1.987846675914698e-15 -7.0538395448682705 -11.843866819694526 -6.589713385441406 0.0 0.0 -1.987846675914698e-15 19.102047114925618 6.692960817769182 -71.89903249811488 118.10926478868754 4.369286849785274e-15 1.7453338678924362e-14 0.0 6.3611093629270335e-15 0.0 -1.7241821476758432e-33 9.93923337957349e-16 1.987846675914698e-16 -0.8407928668630846 -15.33767648202756 -2.199800861207783 0.4984162740158034 27.2020256985751 1.355516789358301 0.0 0.0 3.975693351829396e-16
